/* XPM */
static char *_4b2524b5c684f05ef4f7948cc951de5JFtGkX40HGMyhi6u[] = {
/* columns rows colors chars-per-pixel */
"15 15 3 1 ",
"  c None",
". c #478061",
"X c #ABC2AB",
/* pixels */
"     XXXXX     ",
"    XXXXXXXX   ",
"    XX   XXXX  ",
"           XXX ",
" ..         XX ",
"...   XXX   XXX",
"..   XXXXX   XX",
"..   XXXXX   XX",
"..   XXXXX  XXX",
"...   XXX   XXX",
" ..         XX ",
" ...           ",
"  ....   ..    ",
"   ........    ",
"     .....     "
};
